# xmcd
#
# Track frame offsets:
#	182
#	14325
#	29302
#	44632
#	59290
#	76870
#	92125
#	107495
#	123220
#	137715
#
# Disc length: 2076 seconds
#
# Revision: 0
# Processed by: cddbd v1.5.2PL0 Copyright (c) Steve Scherf et al.
# Submitted via: audiograbber 1.83.01
#
DISCID=7a081a0a
DTITLE=Chris Ward - One Step Beyond
DYEAR=1996
DGENRE=Country
TTITLE0=One Step Beyond
TTITLE1=Mary Ann Is A Pistol
TTITLE2=Fall Reaching
TTITLE3=When You Get To Be You
TTITLE4=Love'll Do That
TTITLE5=Love Me To Death
TTITLE6=It All Started With A Lie
TTITLE7=Somewhere Between Goodbye And Gone
TTITLE8=Back To Earth
TTITLE9=Only God Could Stop Me Lovin' You
EXTD=
EXTT0=
EXTT1=
EXTT2=
EXTT3=
EXTT4=
EXTT5=
EXTT6=
EXTT7=
EXTT8=
EXTT9=
PLAYORDER=
